<svg xmlns="http://www.w3.org/2000/svg" width="512" height="512" viewBox="0 0 512 512">
  <defs>
    <linearGradient id="grad" x1="0" y1="0" x2="1" y2="1">
      <stop offset="0" stop-color="#4338CA"/>
      <stop offset="1" stop-color="#EC4899"/>
    </linearGradient>
  </defs>

  <!-- 背景 -->
  <rect width="512" height="512" rx="64" fill="#020617"/>

  <!-- 外圈光環 -->
  <circle cx="256" cy="256" r="180" fill="none" stroke="url(#grad)" stroke-width="8" opacity="0.9"/>

  <!-- 編織結構：三層交錯軌道 -->
  <path d="M96 256C96 176 160 112 240 112s176 64 176 144-64 144-144 144S96 336 96 256z"
        fill="none" stroke="#1D4ED8" stroke-width="3" opacity="0.75"/>
  <path d="M128 192c40-40 88-64 128-64s88 24 128 64"
        fill="none" stroke="#38BDF8" stroke-width="3" opacity="0.75"/>
  <path d="M128 320c40 40 88 64 128 64s88-24 128-64"
        fill="none" stroke="#F97316" stroke-width="3" opacity="0.75"/>

  <!-- 中央交點：公理核心 -->
  <circle cx="256" cy="256" r="18" fill="#0EA5E9" opacity="0.9"/>
  <circle cx="256" cy="256" r="32" fill="none" stroke="#38BDF8" stroke-width="2" opacity="0.8"/>

  <!-- AW 字樣 -->
  <text x="50%" y="57%" text-anchor="middle"
        fill="#E5E7EB"
        font-family="system-ui, -apple-system, BlinkMacSystemFont, 'Segoe UI', sans-serif"
        font-size="110" letter-spacing="14">
    AW
  </text>
</svg>
